<?xml version="1.0" encoding="UTF-8"?>
<svg width="1600" height="900" viewBox="0 0 1600 900" xmlns="http://www.w3.org/2000/svg" role="img" aria-labelledby="title">
  <title>LedgerLight hero banner · dark</title>
  <defs>
    <linearGradient id="banner-dark-bg" x1="10%" y1="4%" x2="90%" y2="92%">
      <stop offset="0%" stop-color="#040914"/>
      <stop offset="50%" stop-color="#081A33"/>
      <stop offset="100%" stop-color="#050C1A"/>
    </linearGradient>
    <linearGradient id="banner-dark-ring" x1="0%" y1="0%" x2="100%" y2="100%">
      <stop offset="0%" stop-color="#F7E6C2"/>
      <stop offset="50%" stop-color="#E3BC63"/>
      <stop offset="100%" stop-color="#B88728"/>
    </linearGradient>
    <linearGradient id="banner-dark-accent" x1="0%" y1="0%" x2="100%" y2="100%">
      <stop offset="0%" stop-color="#7FD1C9"/>
      <stop offset="100%" stop-color="#31799B"/>
    </linearGradient>
    <linearGradient id="banner-dark-stripe" x1="0%" y1="0%" x2="100%" y2="0%">
      <stop offset="0%" stop-color="#0B1C2C" stop-opacity="0"/>
      <stop offset="40%" stop-color="#123051" stop-opacity="0.55"/>
      <stop offset="100%" stop-color="#0D1F34" stop-opacity="0"/>
    </linearGradient>
    <linearGradient id="banner-dark-gold-line" x1="0%" y1="0%" x2="100%" y2="0%">
      <stop offset="0%" stop-color="#9C6B1D" stop-opacity="0"/>
      <stop offset="45%" stop-color="#D8B058" stop-opacity="0.65"/>
      <stop offset="100%" stop-color="#F2D48E" stop-opacity="0"/>
    </linearGradient>
    <linearGradient id="banner-dark-beam" x1="0%" y1="20%" x2="100%" y2="80%">
      <stop offset="0%" stop-color="#F9E7B5" stop-opacity="0.85"/>
      <stop offset="66%" stop-color="#D9A852" stop-opacity="0.25"/>
      <stop offset="100%" stop-color="#C78C34" stop-opacity="0"/>
    </linearGradient>
  </defs>
  <rect width="1600" height="900" fill="url(#banner-dark-bg)"/>
  <g opacity="0.55">
    <path d="M0 320h1600" stroke="url(#banner-dark-stripe)" stroke-width="120"/>
    <path d="M0 540h1600" stroke="url(#banner-dark-stripe)" stroke-width="120"/>
  </g>
  <g opacity="0.6">
    <path d="M-40 640c200-120 420-160 640-120s420 160 640 160 280-40 360-80" fill="none" stroke="url(#banner-dark-gold-line)" stroke-width="6"/>
    <path d="M-80 420c190-90 330-80 520-40s410 160 640 150 300-70 420-120" fill="none" stroke="url(#banner-dark-gold-line)" stroke-width="3"/>
  </g>
  <g transform="translate(180 180)">
    <circle cx="180" cy="180" r="180" fill="#071223"/>
    <path d="M180 32c90.2 0 167.8 60.2 191.3 142.6" fill="none" stroke="url(#banner-dark-ring)" stroke-width="24" stroke-linecap="round"/>
    <path d="M356.5 220.3C328 318.8 242.1 390 140 390c-91.6 0-171-52.6-208.3-128.7" fill="none" stroke="url(#banner-dark-ring)" stroke-width="24" stroke-linecap="round"/>
    <circle cx="112" cy="96" r="72" fill="#FDEFCB" opacity="0.65"/>
    <rect x="120" y="76" width="90" height="220" rx="44" fill="url(#banner-dark-accent)"/>
    <rect x="120" y="260" width="200" height="86" rx="40" fill="#020B18" opacity="0.76"/>
    <rect x="120" y="56" width="232" height="46" rx="23" fill="#D6A85B" opacity="0.9"/>
    <rect x="148" y="154" width="72" height="130" rx="28" fill="url(#banner-dark-beam)"/>
    <circle cx="252" cy="120" r="26" fill="#F7E6C2" opacity="0.8"/>
  </g>
  <g transform="translate(620 260)">
    <text x="0" y="120" font-size="140" font-family="'Poppins','Inter','Segoe UI','Helvetica Neue',Arial,sans-serif" font-weight="600" letter-spacing="0.24em" fill="#F6E2B7">LEDGER<tspan fill="#7FD1C9">LIGHT</tspan></text>
    <rect x="4" y="148" width="720" height="8" rx="4" fill="rgba(243, 208, 124, 0.38)"/>
    <text x="4" y="214" font-size="40" font-family="'Poppins','Inter','Segoe UI','Helvetica Neue',Arial,sans-serif" letter-spacing="0.48em" fill="#AFC7E2" style="text-transform:uppercase;">Illuminate Your Financial Operations</text>
    <text x="4" y="274" font-size="28" font-family="'Inter','Segoe UI','Helvetica Neue',Arial,sans-serif" fill="#E3E9F3" opacity="0.85">
      Real-time ledgers, precision dashboards, and a calming workspace for modern finance.
    </text>
  </g>
</svg>
