<?xml version="1.0" encoding="UTF-8"?>
<svg width="1600" height="900" viewBox="0 0 1600 900" xmlns="http://www.w3.org/2000/svg" role="img" aria-labelledby="title">
  <title>LedgerLight light hero banner</title>
  <defs>
    <linearGradient id="lightBannerBg" x1="0%" y1="0%" x2="100%" y2="100%">
      <stop offset="0%" stop-color="#FDFBF6"/>
      <stop offset="60%" stop-color="#F2E9DA"/>
      <stop offset="100%" stop-color="#F6EEE1"/>
    </linearGradient>
    <linearGradient id="navyStroke" x1="0%" y1="0%" x2="100%" y2="0%">
      <stop offset="0%" stop-color="#0D1C36" stop-opacity="0"/>
      <stop offset="35%" stop-color="#0F274B" stop-opacity="0.35"/>
      <stop offset="70%" stop-color="#173A6C" stop-opacity="0.85"/>
      <stop offset="100%" stop-color="#1F4A88" stop-opacity="0.2"/>
    </linearGradient>
    <linearGradient id="lightIconRing" x1="0%" y1="0%" x2="100%" y2="100%">
      <stop offset="0%" stop-color="#D9B25A"/>
      <stop offset="100%" stop-color="#B57F1F"/>
    </linearGradient>
    <linearGradient id="lightIconCore" x1="0%" y1="0%" x2="100%" y2="100%">
      <stop offset="0%" stop-color="#F2CE74"/>
      <stop offset="100%" stop-color="#D79D33"/>
    </linearGradient>
    <linearGradient id="lightIconPage" x1="0%" y1="0%" x2="100%" y2="0%">
      <stop offset="0%" stop-color="#F8E2B4" stop-opacity="0.9"/>
      <stop offset="100%" stop-color="#F2C261" stop-opacity="0.3"/>
    </linearGradient>
    <radialGradient id="lightIconGlow" cx="75%" cy="28%" r="65%">
      <stop offset="0%" stop-color="#FFF4DC" stop-opacity="0.95"/>
      <stop offset="85%" stop-color="#F2C86B" stop-opacity="0.08"/>
      <stop offset="100%" stop-color="#F2C86B" stop-opacity="0"/>
    </radialGradient>
    <linearGradient id="navyGradient" x1="0%" y1="0%" x2="100%" y2="100%">
      <stop offset="0%" stop-color="#0E2344"/>
      <stop offset="100%" stop-color="#173A6C"/>
    </linearGradient>
    <pattern id="subtleGrid" x="0" y="0" width="90" height="90" patternUnits="userSpaceOnUse">
      <path d="M0 0H90V90" fill="none" stroke="#E9E1D3" stroke-width="1"/>
      <path d="M0 45H90M45 0V90" fill="none" stroke="#D9CEBD" stroke-width="0.8"/>
    </pattern>
  </defs>
  <rect width="1600" height="900" fill="url(#lightBannerBg)"/>
  <rect x="-120" y="560" width="780" height="780" fill="url(#subtleGrid)" opacity="0.4" transform="rotate(-16 270 950)"/>
  <rect x="990" y="-150" width="680" height="680" fill="url(#subtleGrid)" opacity="0.3" transform="rotate(16 1330 190)"/>
  <g opacity="0.85">
    <path d="M220 640 C400 520 600 460 820 480s440 120 620 260" stroke="url(#navyStroke)" stroke-width="6" fill="none"/>
    <path d="M60 520 C240 380 480 320 700 350s500 160 780 380" stroke="url(#navyStroke)" stroke-width="3" fill="none" opacity="0.5"/>
    <path d="M160 760 C360 600 620 520 940 560s480 180 740 320" stroke="url(#navyStroke)" stroke-width="4" fill="none" opacity="0.3"/>
  </g>
  <g transform="translate(180 210)">
    <circle cx="152" cy="152" r="152" fill="#FFFFFF" opacity="0.95"/>
    <circle cx="152" cy="152" r="138" fill="none" stroke="url(#lightIconRing)" stroke-width="12"/>
    <g transform="translate(64 52)">
      <path d="M64 48h96c18 0 32 14 32 32v166c0 30-24 54-54 54H40c-22 0-40-18-40-40V80c0-18 14-32 32-32h32z" fill="url(#lightIconCore)"/>
      <path d="M140 50h86c18 0 32 14 32 32v116c0 20-10 38-26 50l-60 44c-16 12-38 6-48-11-6-11-3-26 8-34l38-30c9-7 14-18 14-29v-108c0-17-13-30-30-30h-14z" fill="url(#lightIconPage)"/>
      <path d="M214 26c4-3 9-2 12 2 17 30 26 65 26 101 0 52-17 100-51 141-12 14-26 27-40 38-4 3-10 2-12-2s-2-10 2-13c13-10 24-21 34-34 29-37 44-82 44-130 0-31-7-62-22-90-3-4-1-10 3-13z" fill="#F7E4BC" opacity="0.55"/>
      <circle cx="204" cy="82" r="90" fill="url(#lightIconGlow)" opacity="0.75"/>
      <rect x="50" y="82" width="22" height="186" rx="10" fill="#FFF2D8" opacity="0.55"/>
      <rect x="86" y="82" width="18" height="186" rx="8" fill="#FDF5E1" opacity="0.32"/>
    </g>
  </g>
  <g transform="translate(560 250)">
    <text x="0" y="120" font-size="140" font-family="'Poppins','Segoe UI','Helvetica Neue',Arial,sans-serif" fill="url(#navyGradient)" font-weight="600" letter-spacing="0.02em">
      Ledger
      <tspan fill="#B57F1F">Light</tspan>
    </text>
    <rect x="6" y="144" width="600" height="8" rx="4" fill="#C8A35E" opacity="0.35"/>
    <text x="6" y="204" font-size="42" font-family="'Poppins','Segoe UI','Helvetica Neue',Arial,sans-serif" fill="#233965" letter-spacing="0.32em" style="text-transform:uppercase;">
      Illuminate Your Financial Operations
    </text>
    <text x="6" y="264" font-size="26" font-family="'Poppins','Segoe UI','Helvetica Neue',Arial,sans-serif" fill="#2F4874" opacity="0.88">
      Smart ledgers, real-time insights, and elegant control for modern finance teams.
    </text>
  </g>
</svg>
