<?xml version="1.0" encoding="UTF-8"?>
<svg width="1600" height="900" viewBox="0 0 1600 900" xmlns="http://www.w3.org/2000/svg" role="img" aria-labelledby="title">
  <title>LedgerLight hero banner · light</title>
  <defs>
    <linearGradient id="bannerLightBg" x1="12%" y1="6%" x2="88%" y2="92%">
      <stop offset="0%" stop-color="#FBF9F4"/>
      <stop offset="55%" stop-color="#F3E5D4"/>
      <stop offset="100%" stop-color="#F7EDDE"/>
    </linearGradient>
    <linearGradient id="bannerLightTeal" x1="0%" y1="24%" x2="100%" y2="76%">
      <stop offset="0%" stop-color="#64C8C3"/>
      <stop offset="100%" stop-color="#1F6E8E"/>
    </linearGradient>
    <linearGradient id="bannerLightGold" x1="0%" y1="0%" x2="100%" y2="100%">
      <stop offset="0%" stop-color="#F7E6C2"/>
      <stop offset="55%" stop-color="#D6A85B"/>
      <stop offset="100%" stop-color="#B88728"/>
    </linearGradient>
    <linearGradient id="bannerLightBeam" x1="0%" y1="0%" x2="0%" y2="100%">
      <stop offset="0%" stop-color="#FFFFFF" stop-opacity="0.85"/>
      <stop offset="60%" stop-color="#F7E6C2" stop-opacity="0.35"/>
      <stop offset="100%" stop-color="#F7E6C2" stop-opacity="0"/>
    </linearGradient>
    <radialGradient id="bannerLightGlow" cx="40%" cy="34%" r="72%">
      <stop offset="0%" stop-color="#FCEFD0" stop-opacity="0.75"/>
      <stop offset="80%" stop-color="#FCEFD0" stop-opacity="0.1"/>
      <stop offset="100%" stop-color="#FCEFD0" stop-opacity="0"/>
    </radialGradient>
    <linearGradient id="lineNavy" x1="0%" y1="0%" x2="100%" y2="0%">
      <stop offset="0%" stop-color="#173A6C" stop-opacity="0"/>
      <stop offset="40%" stop-color="#1F4A88" stop-opacity="0.55"/>
      <stop offset="60%" stop-color="#1F4A88" stop-opacity="0.35"/>
      <stop offset="100%" stop-color="#173A6C" stop-opacity="0"/>
    </linearGradient>
  </defs>
  <rect width="1600" height="900" fill="url(#bannerLightBg)"/>
  <g opacity="0.45">
    <path d="M-40 640c220-160 470-200 720-120s460 220 720 240" fill="none" stroke="url(#lineNavy)" stroke-width="8"/>
    <path d="M-60 500c200-140 440-150 680-60s480 220 760 240" fill="none" stroke="url(#lineNavy)" stroke-width="4" opacity="0.65"/>
  </g>
  <g transform="translate(180 160)">
    <circle cx="190" cy="190" r="190" fill="url(#bannerLightGlow)" opacity="0.55"/>
    <circle cx="190" cy="190" r="188" fill="#FFFFFF" opacity="0.95"/>
    <circle cx="190" cy="190" r="168" fill="none" stroke="url(#bannerLightTeal)" stroke-width="28"/>
    <circle cx="190" cy="190" r="118" fill="url(#bannerLightGold)"/>
    <rect x="176" y="70" width="28" height="240" rx="14" fill="#0B1C2C"/>
    <rect x="180" y="84" width="20" height="212" rx="10" fill="url(#bannerLightBeam)"/>
    <path d="M190 108c44 0 80 36 80 80h-32c0-27-21-48-48-48s-48 21-48 48 21 48 48 48c44 0 80 36 80 80s-36 80-80 80-80-36-80-80h32c0 27 21 48 48 48s48-21 48-48-21-48-48-48c-44 0-80-36-80-80s36-80 80-80z" fill="#0B1C2C" opacity="0.7"/>
  </g>
  <g transform="translate(620 250)">
    <text x="0" y="120" font-family="'Inter','Poppins','Segoe UI',sans-serif" font-size="140" font-weight="600" letter-spacing="0.06em" fill="#1A3656">Ledger<tspan fill="#B88728">Light</tspan></text>
    <rect x="6" y="148" width="680" height="8" rx="4" fill="rgba(182,141,45,0.32)"/>
    <text x="6" y="214" font-family="'Inter','Poppins','Segoe UI',sans-serif" font-size="42" letter-spacing="0.48em" fill="#3F597F" style="text-transform:uppercase;">Illuminate Your Financial Operations</text>
    <text x="6" y="276" font-family="'Inter','Segoe UI',sans-serif" font-size="30" fill="#4E6483" opacity="0.9">
      A self-hosted ledger hub blending precision accounting with luminous, modern insight.
    </text>
  </g>
</svg>
