<?xml version="1.0" encoding="UTF-8"?>
<svg width="960" height="320" viewBox="0 0 960 320" xmlns="http://www.w3.org/2000/svg" role="img" aria-labelledby="title">
  <title>LedgerLight primary logo · dark</title>
  <defs>
    <linearGradient id="bg" x1="12%" y1="8%" x2="88%" y2="92%">
      <stop offset="0%" stop-color="#050A15"/>
      <stop offset="60%" stop-color="#0C1E35"/>
      <stop offset="100%" stop-color="#050B16"/>
    </linearGradient>
    <linearGradient id="tealRing" x1="0%" y1="24%" x2="100%" y2="76%">
      <stop offset="0%" stop-color="#7FD1C9"/>
      <stop offset="100%" stop-color="#2B7C94"/>
    </linearGradient>
    <linearGradient id="goldCoin" x1="0%" y1="0%" x2="100%" y2="100%">
      <stop offset="0%" stop-color="#F7E6C2"/>
      <stop offset="55%" stop-color="#D6A85B"/>
      <stop offset="100%" stop-color="#B88728"/>
    </linearGradient>
    <linearGradient id="beam" x1="0%" y1="0%" x2="0%" y2="100%">
      <stop offset="0%" stop-color="#FFFFFF" stop-opacity="0.9"/>
      <stop offset="60%" stop-color="#F7E6C2" stop-opacity="0.35"/>
      <stop offset="100%" stop-color="#F7E6C2" stop-opacity="0"/>
    </linearGradient>
    <radialGradient id="glow" cx="46%" cy="32%" r="62%">
      <stop offset="0%" stop-color="#FCEFD0" stop-opacity="0.8"/>
      <stop offset="100%" stop-color="#FCEFD0" stop-opacity="0"/>
    </radialGradient>
  </defs>
  <rect width="960" height="320" rx="32" fill="url(#bg)"/>
  <g transform="translate(96 60)">
    <circle cx="96" cy="100" r="96" fill="url(#glow)" opacity="0.45"/>
    <circle cx="96" cy="100" r="94" fill="#071223"/>
    <circle cx="96" cy="100" r="94" fill="none" stroke="url(#tealRing)" stroke-width="18"/>
    <circle cx="96" cy="100" r="64" fill="url(#goldCoin)"/>
    <rect x="86" y="38" width="20" height="124" rx="10" fill="#061222"/>
    <rect x="88" y="46" width="16" height="108" rx="8" fill="url(#beam)"/>
    <path d="M96 58c24 0 44 20 44 44s-20 44-44 44-44-20-44-44 20-44 44-44z" fill="none" stroke="#061222" stroke-width="8" opacity="0.15"/>
    <path d="M96 70c18 0 32 14 32 32h-18c0-8-6-14-14-14s-14 6-14 14 6 14 14 14c18 0 32 14 32 32s-14 32-32 32-32-14-32-32h18c0 8 6 14 14 14s14-6 14-14-6-14-14-14c-18 0-32-14-32-32s14-32 32-32z" fill="#061222" opacity="0.75"/>
  </g>
  <g transform="translate(260 118)">
    <text x="0" y="74" font-family="'Inter','Poppins','Segoe UI',sans-serif" font-size="92" font-weight="600" letter-spacing="0.04em" fill="#7FD1C9">Ledger<tspan fill="#F7E6C2">Light</tspan></text>
    <rect x="4" y="90" width="380" height="6" rx="3" fill="rgba(247,230,194,0.35)"/>
    <text x="4" y="122" font-family="'Inter','Poppins','Segoe UI',sans-serif" font-size="24" letter-spacing="0.42em" fill="#95B1D1" style="text-transform:uppercase;">Illuminate Finance</text>
  </g>
</svg>
