<?xml version="1.0" encoding="UTF-8"?>
<svg width="960" height="320" viewBox="0 0 960 320" xmlns="http://www.w3.org/2000/svg" role="img" aria-labelledby="title">
  <title>LedgerLight Logo · Dark</title>
  <defs>
    <linearGradient id="logoBgDark" x1="12%" y1="8%" x2="88%" y2="92%">
      <stop offset="0%" stop-color="#050A16"/>
      <stop offset="55%" stop-color="#0B1F35"/>
      <stop offset="100%" stop-color="#040810"/>
    </linearGradient>
    <linearGradient id="logoCoin" x1="20%" y1="0%" x2="80%" y2="100%">
      <stop offset="0%" stop-color="#7FE0D4"/>
      <stop offset="50%" stop-color="#57C5B6"/>
      <stop offset="100%" stop-color="#2D8AA2"/>
    </linearGradient>
    <linearGradient id="logoGlow" x1="30%" y1="0%" x2="90%" y2="80%">
      <stop offset="0%" stop-color="#FFFFFF" stop-opacity="0.85"/>
      <stop offset="40%" stop-color="#F1FBF8" stop-opacity="0.35"/>
      <stop offset="100%" stop-color="#F1FBF8" stop-opacity="0"/>
    </linearGradient>
  </defs>
  <rect width="960" height="320" rx="32" fill="url(#logoBgDark)"/>
  <g transform="translate(110 70)">
    <circle cx="86" cy="90" r="90" fill="#0B1C2C"/>
    <circle cx="86" cy="90" r="90" fill="url(#logoCoin)" opacity="0.9"/>
    <path d="M86 6c46 0 84 38 84 84s-38 84-84 84S2 136 2 90 40 6 86 6z" fill="url(#logoCoin)"/>
    <path d="M86 6c46 0 84 38 84 84 0 30-14 57-38 72V6z" fill="#0B273C" opacity="0.25"/>
    <path d="M86 22c37 0 68 31 68 68s-31 68-68 68-68-31-68-68 31-68 68-68z" fill="none" stroke="rgba(255,255,255,0.25)" stroke-width="14"/>
    <path d="M98 38h10c5 0 8 3 8 8v50c22 4 40 20 40 44 0 26-19 44-46 48v14c0 5-3 8-8 8h-20c-5 0-8-3-8-8v-14c-18-3-32-11-42-24-3-4-2-9 1-13l14-11c4-3 9-2 12 1 6 9 16 15 27 15 14 0 24-7 24-20s-9-20-26-20c-5 0-8-3-8-8v-22c-12-3-22-9-30-18-3-4-3-9 0-13l12-14c3-4 9-4 12-1 7 8 14 12 22 14V46c0-5 3-8 8-8z" fill="#FFFFFF"/>
    <path d="M80 16c25-6 52-4 80 10 5 2 6 8 4 12-17 28-44 48-82 60-5 1-9-1-11-6l-4-17c-1-5 1-10 6-12 24-8 43-19 56-34-13-4-27-5-42-3-5 1-9-2-10-7l-2-13c0-6 2-10 5-11z" fill="url(#logoGlow)" opacity="0.6"/>
  </g>
  <g transform="translate(310 128)">
    <text x="0" y="88" font-family="'Inter','SF Pro Display','Poppins',sans-serif" font-size="92" font-weight="600" letter-spacing="0.04em" fill="#7FE0D4">Ledger<tspan fill="#EAEFF4">Light</tspan></text>
    <rect x="2" y="106" width="360" height="6" rx="3" fill="rgba(239,250,248,0.35)"/>
    <text x="4" y="138" font-family="'Inter','SF Pro Display','Poppins',sans-serif" font-size="26" letter-spacing="0.38em" fill="#9EB9D1" style="text-transform:uppercase;">Illuminate Finance</text>
  </g>
</svg>
