<?xml version="1.0" encoding="UTF-8"?>
<svg width="960" height="320" viewBox="0 0 960 320" xmlns="http://www.w3.org/2000/svg" role="img" aria-labelledby="title">
  <title>LedgerLight primary logo · dark</title>
  <defs>
    <linearGradient id="logo-dark-bg" x1="12%" y1="4%" x2="84%" y2="90%">
      <stop offset="0%" stop-color="#050B16"/>
      <stop offset="55%" stop-color="#0B1F38"/>
      <stop offset="100%" stop-color="#07101F"/>
    </linearGradient>
    <linearGradient id="logo-ring" x1="0%" y1="0%" x2="100%" y2="100%">
      <stop offset="0%" stop-color="#F7E6C2"/>
      <stop offset="50%" stop-color="#E3BC63"/>
      <stop offset="100%" stop-color="#B88728"/>
    </linearGradient>
    <linearGradient id="logo-accent" x1="0%" y1="0%" x2="100%" y2="100%">
      <stop offset="0%" stop-color="#7FD1C9"/>
      <stop offset="100%" stop-color="#3B819F"/>
    </linearGradient>
    <linearGradient id="logo-beam" x1="0%" y1="20%" x2="100%" y2="80%">
      <stop offset="0%" stop-color="#F9E7B5" stop-opacity="0.85"/>
      <stop offset="70%" stop-color="#D9A852" stop-opacity="0.2"/>
      <stop offset="100%" stop-color="#C78C34" stop-opacity="0"/>
    </linearGradient>
  </defs>
  <rect width="960" height="320" rx="36" fill="url(#logo-dark-bg)"/>
  <g transform="translate(120 60)">
    <circle cx="96" cy="100" r="96" fill="#081423"/>
    <path d="M96 14c48.6 0 90.5 28.4 109.9 70.1" fill="none" stroke="url(#logo-ring)" stroke-width="16" stroke-linecap="round"/>
    <path d="M198 130c-17.8 51.5-66.4 87-122 87-50.9 0-95.2-29.4-116.5-73.9" fill="none" stroke="url(#logo-ring)" stroke-width="16" stroke-linecap="round"/>
    <circle cx="58" cy="56" r="48" fill="#FBE8B3" opacity="0.7"/>
    <rect x="54" y="34" width="60" height="132" rx="28" fill="url(#logo-accent)"/>
    <rect x="54" y="136" width="120" height="54" rx="26" fill="#031224" opacity="0.7"/>
    <rect x="54" y="20" width="148" height="32" rx="16" fill="#D6A85B" opacity="0.85"/>
    <rect x="72" y="82" width="48" height="78" rx="18" fill="url(#logo-beam)"/>
    <circle cx="148" cy="62" r="18" fill="#F7E6C2" opacity="0.75"/>
  </g>
  <g transform="translate(320 96)">
    <text x="0" y="104" font-size="94" font-family="'Poppins','Inter','Segoe UI','Helvetica Neue',Arial,sans-serif" font-weight="600" letter-spacing="0.22em" fill="#F4E3BF">LEDGER<tspan fill="#7FD1C9">LIGHT</tspan></text>
    <rect x="4" y="126" width="360" height="6" rx="3" fill="rgba(243, 208, 124, 0.35)"/>
    <text x="4" y="164" font-size="28" font-family="'Poppins','Inter','Segoe UI','Helvetica Neue',Arial,sans-serif" fill="#9FB5D6" letter-spacing="0.46em" style="text-transform:uppercase;">
      FINANCE ILLUMINATED
    </text>
  </g>
</svg>
