<?xml version="1.0" encoding="UTF-8"?>
<svg width="512" height="512" viewBox="0 0 512 512" xmlns="http://www.w3.org/2000/svg" role="img" aria-labelledby="title">
  <title>LedgerLight icon</title>
  <defs>
    <linearGradient id="bg" x1="14%" y1="8%" x2="86%" y2="88%">
      <stop offset="0%" stop-color="#0B1C2C"/>
      <stop offset="60%" stop-color="#102B52"/>
      <stop offset="100%" stop-color="#050E1C"/>
    </linearGradient>
    <linearGradient id="tealRing" x1="0%" y1="20%" x2="100%" y2="80%">
      <stop offset="0%" stop-color="#7FD1C9"/>
      <stop offset="100%" stop-color="#2B7C94"/>
    </linearGradient>
    <linearGradient id="goldCoin" x1="0%" y1="0%" x2="100%" y2="100%">
      <stop offset="0%" stop-color="#F7E6C2"/>
      <stop offset="50%" stop-color="#D6A85B"/>
      <stop offset="100%" stop-color="#B88728"/>
    </linearGradient>
    <linearGradient id="lightBeam" x1="0%" y1="0%" x2="0%" y2="100%">
      <stop offset="0%" stop-color="#FFFFFF" stop-opacity="0.85"/>
      <stop offset="60%" stop-color="#F7E6C2" stop-opacity="0.35"/>
      <stop offset="100%" stop-color="#F7E6C2" stop-opacity="0"/>
    </linearGradient>
    <radialGradient id="glow" cx="50%" cy="36%" r="62%">
      <stop offset="0%" stop-color="#FCEFD0" stop-opacity="0.85"/>
      <stop offset="100%" stop-color="#FCEFD0" stop-opacity="0"/>
    </radialGradient>
  </defs>
  <circle cx="256" cy="256" r="232" fill="url(#bg)"/>
  <circle cx="256" cy="256" r="208" fill="none" stroke="url(#tealRing)" stroke-width="30" stroke-linecap="round"/>
  <circle cx="256" cy="256" r="180" fill="url(#glow)" opacity="0.55"/>
  <path d="M256 124c73 0 132 59 132 132s-59 132-132 132-132-59-132-132 59-132 132-132z" fill="#071223"/>
  <path d="M256 140c64 0 116 52 116 116s-52 116-116 116-116-52-116-116 52-116 116-116z" fill="url(#tealRing)"/>
  <path d="M256 164c51 0 92 41 92 92s-41 92-92 92-92-41-92-92 41-92 92-92z" fill="url(#goldCoin)"/>
  <path d="M240 164h32c6 0 11 5 11 11v162c0 6-5 11-11 11h-32c-6 0-11-5-11-11V175c0-6 5-11 11-11z" fill="#0B1C2C"/>
  <path d="M246 176h20c6 0 10 4 10 10v138c0 6-4 10-10 10h-20c-6 0-10-4-10-10V186c0-6 4-10 10-10z" fill="url(#lightBeam)"/>
  <path d="M256 204c18 0 32 14 32 32h-20c0-7-5-12-12-12s-12 5-12 12 5 12 12 12c18 0 32 14 32 32s-14 32-32 32-32-14-32-32h20c0 7 5 12 12 12s12-5 12-12-5-12-12-12c-18 0-32-14-32-32s14-32 32-32z" fill="#0B1C2C" opacity="0.75"/>
</svg>
