<?xml version="1.0" encoding="UTF-8"?>
<svg width="512" height="512" viewBox="0 0 512 512" xmlns="http://www.w3.org/2000/svg" role="img" aria-labelledby="title">
  <title>LedgerLight Icon</title>
  <defs>
    <linearGradient id="coinGradient" x1="20%" y1="0%" x2="80%" y2="100%">
      <stop offset="0%" stop-color="#7FE0D4"/>
      <stop offset="50%" stop-color="#57C5B6"/>
      <stop offset="100%" stop-color="#2D8AA2"/>
    </linearGradient>
    <linearGradient id="shadowGradient" x1="0%" y1="0%" x2="0%" y2="100%">
      <stop offset="0%" stop-color="#1C3A52"/>
      <stop offset="100%" stop-color="#0C1E36"/>
    </linearGradient>
    <linearGradient id="glowGradient" x1="30%" y1="0%" x2="90%" y2="90%">
      <stop offset="0%" stop-color="rgba(255,255,255,0.9)"/>
      <stop offset="40%" stop-color="rgba(255,255,255,0.35)"/>
      <stop offset="100%" stop-color="rgba(255,255,255,0)"/>
    </linearGradient>
  </defs>
  <circle cx="256" cy="256" r="228" fill="url(#shadowGradient)"/>
  <path d="M256 60c108 0 196 88 196 196s-88 196-196 196-196-88-196-196S148 60 256 60z" fill="url(#coinGradient)"/>
  <path d="M256 60c108 0 196 88 196 196 0 74-41 138-102 171V60z" fill="#0E233A" opacity="0.32"/>
  <path d="M256 100c86 0 156 70 156 156s-70 156-156 156-156-70-156-156 70-156 156-156z" fill="none" stroke="rgba(255,255,255,0.18)" stroke-width="22"/>
  <path d="M274 128h12c6 0 10 4 10 10v68c28 6 48 26 48 56 0 32-24 54-58 58v16c0 6-4 10-10 10h-24c-6 0-10-4-10-10v-16c-22-3-42-14-56-30-4-5-4-12 1-16l17-14c4-3 10-3 14 1 9 11 20 18 36 18 18 0 30-10 30-26s-12-26-32-26c-6 0-10-4-10-10v-28c-14-4-28-12-40-24-4-4-4-10-1-14l14-16c4-4 11-4 15 0 9 10 18 15 29 17v-70c0-6 4-10 10-10z" fill="#FFFFFF"/>
  <path d="M252 92c30-6 62-4 96 12 6 3 8 10 5 15-20 34-52 58-101 72-6 2-12-1-14-7l-6-20c-2-6 1-12 7-14 30-10 54-24 69-44-17-6-35-8-54-5-6 1-11-3-12-9l-2-16c-1-6 3-12 8-13z" fill="url(#glowGradient)" opacity="0.6"/>
</svg>
