<?xml version="1.0" encoding="UTF-8"?>
<svg width="512" height="512" viewBox="0 0 512 512" xmlns="http://www.w3.org/2000/svg" role="img" aria-labelledby="title">
  <title>LedgerLight icon</title>
  <defs>
    <linearGradient id="icon-bg" x1="18%" y1="8%" x2="86%" y2="88%">
      <stop offset="0%" stop-color="#0B1C2C"/>
      <stop offset="60%" stop-color="#102B52"/>
      <stop offset="100%" stop-color="#071528"/>
    </linearGradient>
    <linearGradient id="icon-ring" x1="0%" y1="0%" x2="100%" y2="100%">
      <stop offset="0%" stop-color="#F8E6BE"/>
      <stop offset="45%" stop-color="#E3BC63"/>
      <stop offset="100%" stop-color="#B88728"/>
    </linearGradient>
    <linearGradient id="icon-accent" x1="0%" y1="0%" x2="100%" y2="100%">
      <stop offset="0%" stop-color="#7FD1C9"/>
      <stop offset="100%" stop-color="#3B819F"/>
    </linearGradient>
    <linearGradient id="icon-beam" x1="0%" y1="30%" x2="100%" y2="70%">
      <stop offset="0%" stop-color="#F8E4B3" stop-opacity="0.9"/>
      <stop offset="60%" stop-color="#E6C06A" stop-opacity="0.35"/>
      <stop offset="100%" stop-color="#D39B41" stop-opacity="0"/>
    </linearGradient>
    <radialGradient id="icon-glow" cx="28%" cy="20%" r="65%">
      <stop offset="0%" stop-color="#FCEAAB" stop-opacity="0.75"/>
      <stop offset="100%" stop-color="#FCEAAB" stop-opacity="0"/>
    </radialGradient>
  </defs>
  <circle cx="256" cy="256" r="230" fill="url(#icon-bg)"/>
  <path d="M256 60c107.5 0 196 88.5 196 196 0 9.5-0.7 18.8-2.1 27.9" fill="none" stroke="url(#icon-ring)" stroke-width="22" stroke-linecap="round"/>
  <path d="M442.8 320.2C417.8 402.5 343 460 256 460c-75.5 0-141.4-43.3-173.5-106.7" fill="none" stroke="url(#icon-ring)" stroke-width="22" stroke-linecap="round"/>
  <circle cx="176" cy="152" r="108" fill="url(#icon-glow)" opacity="0.7"/>
  <path d="M188 140c0-11 9-20 20-20h64c11 0 20 9 20 20v180c0 11-9 20-20 20h-64c-11 0-20-9-20-20V140z" fill="url(#icon-accent)"/>
  <path d="M184 328c0-8 6-14 14-14h138c6 0 11 5 11 11 0 31-25 56-56 56h-95c-8 0-14-6-14-14v-39z" fill="#040F21" opacity="0.6"/>
  <path d="M188 116c0-6 5-11 11-11h166c6 0 11 5 11 11v20c0 6-5 11-11 11H210c-8 0-15 5-18 12l-14 32c-1 4-7 3-7-1v-74z" fill="#D19A3B" opacity="0.85"/>
  <path d="M198 206c0-5 4-9 9-9h60c5 0 9 4 9 9v106c0 5-4 9-9 9h-60c-5 0-9-4-9-9V206z" fill="url(#icon-beam)"/>
  <circle cx="332" cy="156" r="28" fill="#F8E6BE" opacity="0.8"/>
</svg>
