<?xml version="1.0" encoding="UTF-8"?>
<svg width="960" height="320" viewBox="0 0 960 320" xmlns="http://www.w3.org/2000/svg" role="img" aria-labelledby="title">
  <title>LedgerLight primary logo on light background</title>
  <defs>
    <linearGradient id="lightBg" x1="0%" y1="0%" x2="100%" y2="100%">
      <stop offset="0%" stop-color="#FBF8F2"/>
      <stop offset="100%" stop-color="#F3ECE1"/>
    </linearGradient>
    <linearGradient id="iconRingLight" x1="0%" y1="0%" x2="100%" y2="100%">
      <stop offset="0%" stop-color="#D9B25A"/>
      <stop offset="100%" stop-color="#B57F1F"/>
    </linearGradient>
    <linearGradient id="iconCoreLight" x1="0%" y1="0%" x2="100%" y2="100%">
      <stop offset="0%" stop-color="#F2CE74"/>
      <stop offset="100%" stop-color="#D79D33"/>
    </linearGradient>
    <linearGradient id="iconPageLight" x1="0%" y1="0%" x2="100%" y2="0%">
      <stop offset="0%" stop-color="#F8E2B4" stop-opacity="0.9"/>
      <stop offset="100%" stop-color="#F2C261" stop-opacity="0.35"/>
    </linearGradient>
    <radialGradient id="iconGlowLight" cx="72%" cy="32%" r="68%">
      <stop offset="0%" stop-color="#FFF4DC" stop-opacity="0.95"/>
      <stop offset="80%" stop-color="#F2C86B" stop-opacity="0.1"/>
      <stop offset="100%" stop-color="#F2C86B" stop-opacity="0"/>
    </radialGradient>
  </defs>
  <rect width="960" height="320" fill="url(#lightBg)" rx="36"/>
  <g transform="translate(120 52)">
    <circle cx="108" cy="108" r="108" fill="#FFFFFF"/>
    <circle cx="108" cy="108" r="96" fill="none" stroke="url(#iconRingLight)" stroke-width="10"/>
    <g transform="translate(32 28)">
      <path d="M46 28h68c14 0 26 12 26 26v115c0 22-18 40-40 40H24c-13 0-24-11-24-24V60c0-18 14-32 32-32z" fill="url(#iconCoreLight)"/>
      <path d="M104 28h60c14 0 26 12 26 26v85c0 17-8 33-22 43l-44 31c-12 8-27 4-33-8-3-7-1-16 6-21l26-20c7-6 11-16 11-25V56c0-16-13-28-28-28h-2z" fill="url(#iconPageLight)"/>
      <path d="M168 16c4-3 9-2 12 2 12 22 19 47 19 73 0 38-12 74-35 104-8 11-18 20-28 29-4 3-9 2-12-2-3-4-2-9 2-12 9-7 17-15 24-25 20-27 30-59 30-94 0-23-6-46-17-67-2-4-1-9 3-12z" fill="#F7E4BC" opacity="0.55"/>
      <circle cx="152" cy="58" r="62" fill="url(#iconGlowLight)" opacity="0.75"/>
      <rect x="26" y="58" width="18" height="130" rx="8" fill="#FFF2D8" opacity="0.65"/>
      <rect x="52" y="58" width="14" height="130" rx="6" fill="#FDF5E1" opacity="0.35"/>
    </g>
  </g>
  <g transform="translate(360 94)">
    <text x="0" y="88" font-size="92" font-family="'Poppins','Segoe UI','Helvetica Neue',Arial,sans-serif" fill="#10244A" font-weight="600" letter-spacing="0.02em">
      Ledger
      <tspan fill="#B57F1F">Light</tspan>
    </text>
    <rect x="4" y="116" width="320" height="6" rx="3" fill="#D7B162" opacity="0.25"/>
    <text x="4" y="158" font-size="26" font-family="'Poppins','Segoe UI','Helvetica Neue',Arial,sans-serif" fill="#203458" letter-spacing="0.36em" style="text-transform:uppercase;">
      Illuminate Finance
    </text>
  </g>
</svg>
