<?xml version="1.0" encoding="UTF-8"?>
<svg width="1600" height="900" viewBox="0 0 1600 900" xmlns="http://www.w3.org/2000/svg" role="img" aria-labelledby="title">
  <title>LedgerLight hero banner · light</title>
  <defs>
    <linearGradient id="banner-light-bg" x1="6%" y1="4%" x2="94%" y2="90%">
      <stop offset="0%" stop-color="#FDFBF6"/>
      <stop offset="100%" stop-color="#F2E6D7"/>
    </linearGradient>
    <linearGradient id="banner-light-ring" x1="0%" y1="0%" x2="100%" y2="100%">
      <stop offset="0%" stop-color="#F0DCA8"/>
      <stop offset="50%" stop-color="#D6A85B"/>
      <stop offset="100%" stop-color="#B88728"/>
    </linearGradient>
    <linearGradient id="banner-light-accent" x1="0%" y1="0%" x2="100%" y2="100%">
      <stop offset="0%" stop-color="#68BFC0"/>
      <stop offset="100%" stop-color="#256A8A"/>
    </linearGradient>
    <linearGradient id="banner-light-stripe" x1="0%" y1="0%" x2="100%" y2="0%">
      <stop offset="0%" stop-color="#E8E0D0" stop-opacity="0"/>
      <stop offset="45%" stop-color="#D9CEBD" stop-opacity="0.65"/>
      <stop offset="100%" stop-color="#E8E0D0" stop-opacity="0"/>
    </linearGradient>
    <linearGradient id="banner-light-navy-line" x1="0%" y1="0%" x2="100%" y2="0%">
      <stop offset="0%" stop-color="#173A6C" stop-opacity="0"/>
      <stop offset="50%" stop-color="#1F4A88" stop-opacity="0.6"/>
      <stop offset="100%" stop-color="#173A6C" stop-opacity="0"/>
    </linearGradient>
    <linearGradient id="banner-light-beam" x1="0%" y1="20%" x2="100%" y2="80%">
      <stop offset="0%" stop-color="#F9E7B5" stop-opacity="0.7"/>
      <stop offset="65%" stop-color="#D9A852" stop-opacity="0.18"/>
      <stop offset="100%" stop-color="#C78C34" stop-opacity="0"/>
    </linearGradient>
  </defs>
  <rect width="1600" height="900" fill="url(#banner-light-bg)"/>
  <g opacity="0.4">
    <path d="M0 320h1600" stroke="url(#banner-light-stripe)" stroke-width="120"/>
    <path d="M0 540h1600" stroke="url(#banner-light-stripe)" stroke-width="120"/>
  </g>
  <g opacity="0.45">
    <path d="M-40 640c200-120 420-160 640-120s420 160 640 160 280-40 360-80" fill="none" stroke="url(#banner-light-navy-line)" stroke-width="6"/>
    <path d="M-80 420c190-90 330-80 520-40s410 160 640 150 300-70 420-120" fill="none" stroke="url(#banner-light-navy-line)" stroke-width="3"/>
  </g>
  <g transform="translate(180 180)">
    <circle cx="180" cy="180" r="180" fill="#FFFFFF" opacity="0.95"/>
    <path d="M180 32c90.2 0 167.8 60.2 191.3 142.6" fill="none" stroke="url(#banner-light-ring)" stroke-width="24" stroke-linecap="round"/>
    <path d="M356.5 220.3C328 318.8 242.1 390 140 390c-91.6 0-171-52.6-208.3-128.7" fill="none" stroke="url(#banner-light-ring)" stroke-width="24" stroke-linecap="round"/>
    <circle cx="112" cy="96" r="72" fill="#FDEFCB" opacity="0.6"/>
    <rect x="120" y="76" width="90" height="220" rx="44" fill="url(#banner-light-accent)"/>
    <rect x="120" y="260" width="200" height="86" rx="40" fill="#F5F7FA" opacity="0.85"/>
    <rect x="120" y="56" width="232" height="46" rx="23" fill="#D6A85B" opacity="0.92"/>
    <rect x="148" y="154" width="72" height="130" rx="28" fill="url(#banner-light-beam)"/>
    <circle cx="252" cy="120" r="26" fill="#F7E6C2" opacity="0.8"/>
  </g>
  <g transform="translate(620 260)">
    <text x="0" y="120" font-size="140" font-family="'Poppins','Inter','Segoe UI','Helvetica Neue',Arial,sans-serif" font-weight="600" letter-spacing="0.24em" fill="#143056">LEDGER<tspan fill="#B88728">LIGHT</tspan></text>
    <rect x="4" y="148" width="720" height="8" rx="4" fill="rgba(214, 168, 91, 0.36)"/>
    <text x="4" y="214" font-size="40" font-family="'Poppins','Inter','Segoe UI','Helvetica Neue',Arial,sans-serif" letter-spacing="0.48em" fill="#314B74" style="text-transform:uppercase;">Illuminate Your Financial Operations</text>
    <text x="4" y="274" font-size="28" font-family="'Inter','Segoe UI','Helvetica Neue',Arial,sans-serif" fill="#4D5F80" opacity="0.9">
      Real-time ledgers, precision dashboards, and a calming workspace for modern finance.
    </text>
  </g>
</svg>
