<?xml version="1.0" encoding="UTF-8"?>
<svg width="1600" height="900" viewBox="0 0 1600 900" xmlns="http://www.w3.org/2000/svg" role="img" aria-labelledby="title">
  <title>LedgerLight hero banner · dark</title>
  <defs>
    <linearGradient id="bannerDarkBg" x1="16%" y1="6%" x2="84%" y2="94%">
      <stop offset="0%" stop-color="#050A16"/>
      <stop offset="45%" stop-color="#0B1F35"/>
      <stop offset="100%" stop-color="#040810"/>
    </linearGradient>
    <linearGradient id="bannerTeal" x1="0%" y1="20%" x2="100%" y2="80%">
      <stop offset="0%" stop-color="#7FD1C9"/>
      <stop offset="100%" stop-color="#2B7C94"/>
    </linearGradient>
    <linearGradient id="bannerGold" x1="0%" y1="0%" x2="100%" y2="100%">
      <stop offset="0%" stop-color="#F7E6C2"/>
      <stop offset="50%" stop-color="#D6A85B"/>
      <stop offset="100%" stop-color="#B88728"/>
    </linearGradient>
    <linearGradient id="bannerBeam" x1="0%" y1="0%" x2="0%" y2="100%">
      <stop offset="0%" stop-color="#FFFFFF" stop-opacity="0.85"/>
      <stop offset="60%" stop-color="#F7E6C2" stop-opacity="0.35"/>
      <stop offset="100%" stop-color="#F7E6C2" stop-opacity="0"/>
    </linearGradient>
    <radialGradient id="bannerGlow" cx="40%" cy="34%" r="70%">
      <stop offset="0%" stop-color="#FCEFD0" stop-opacity="0.9"/>
      <stop offset="80%" stop-color="#FCEFD0" stop-opacity="0.1"/>
      <stop offset="100%" stop-color="#FCEFD0" stop-opacity="0"/>
    </radialGradient>
    <linearGradient id="lineGold" x1="0%" y1="0%" x2="100%" y2="0%">
      <stop offset="0%" stop-color="#9C6B1D" stop-opacity="0"/>
      <stop offset="35%" stop-color="#D6A85B" stop-opacity="0.7"/>
      <stop offset="65%" stop-color="#F7E6C2" stop-opacity="0.35"/>
      <stop offset="100%" stop-color="#9C6B1D" stop-opacity="0"/>
    </linearGradient>
  </defs>
  <rect width="1600" height="900" fill="url(#bannerDarkBg)"/>
  <g opacity="0.6">
    <path d="M-20 640c220-160 470-200 720-120s460 220 720 240" fill="none" stroke="url(#lineGold)" stroke-width="8"/>
    <path d="M-80 520c210-140 440-150 680-60s480 220 760 240" fill="none" stroke="url(#lineGold)" stroke-width="4" opacity="0.65"/>
  </g>
  <g transform="translate(180 160)">
    <circle cx="190" cy="190" r="190" fill="url(#bannerGlow)" opacity="0.5"/>
    <circle cx="190" cy="190" r="188" fill="#030A16"/>
    <circle cx="190" cy="190" r="168" fill="none" stroke="url(#bannerTeal)" stroke-width="28"/>
    <circle cx="190" cy="190" r="118" fill="url(#bannerGold)"/>
    <rect x="176" y="70" width="28" height="240" rx="14" fill="#020712"/>
    <rect x="180" y="84" width="20" height="212" rx="10" fill="url(#bannerBeam)"/>
    <path d="M190 108c44 0 80 36 80 80h-32c0-27-21-48-48-48s-48 21-48 48 21 48 48 48c44 0 80 36 80 80s-36 80-80 80-80-36-80-80h32c0 27 21 48 48 48s48-21 48-48-21-48-48-48c-44 0-80-36-80-80s36-80 80-80z" fill="#020712" opacity="0.7"/>
  </g>
  <g transform="translate(620 250)">
    <text x="0" y="120" font-family="'Inter','Poppins','Segoe UI',sans-serif" font-size="140" font-weight="600" letter-spacing="0.06em" fill="#7FD1C9">Ledger<tspan fill="#F7E6C2">Light</tspan></text>
    <rect x="6" y="148" width="680" height="8" rx="4" fill="rgba(247,230,194,0.32)"/>
    <text x="6" y="214" font-family="'Inter','Poppins','Segoe UI',sans-serif" font-size="42" letter-spacing="0.48em" fill="#AFC3DF" style="text-transform:uppercase;">Illuminate Your Financial Operations</text>
    <text x="6" y="276" font-family="'Inter','Segoe UI',sans-serif" font-size="30" fill="#D3DEEF" opacity="0.88">
      A self-hosted ledger hub blending precision accounting with luminous, modern insight.
    </text>
  </g>
</svg>
